<mxfile host="app.diagrams.net" agent="Mozilla/5.0 (Windows NT 10.0; Win64; x64) AppleWebKit/537.36 (KHTML, like Gecko) Chrome/135.0.0.0 Safari/537.36" version="26.2.14">
  <diagram name="Page-1" id="aIiyL19sXfWsIiCOpw07">
    <mxGraphModel dx="1489" dy="753" grid="1" gridSize="10" guides="1" tooltips="1" connect="1" arrows="1" fold="1" page="1" pageScale="1" pageWidth="827" pageHeight="1169" math="0" shadow="0">
      <root>
        <mxCell id="0" />
        <mxCell id="1" parent="0" />
        <mxCell id="_l1W-Wn44Iar3BXcV8EO-14" value="Admin" style="rounded=0;whiteSpace=wrap;html=1;" vertex="1" parent="1">
          <mxGeometry x="84" y="220" width="120" height="60" as="geometry" />
        </mxCell>
        <mxCell id="_l1W-Wn44Iar3BXcV8EO-15" value="Staff" style="rounded=0;whiteSpace=wrap;html=1;" vertex="1" parent="1">
          <mxGeometry x="84" y="360" width="120" height="60" as="geometry" />
        </mxCell>
        <mxCell id="_l1W-Wn44Iar3BXcV8EO-16" value="SmartGov Application" style="ellipse;whiteSpace=wrap;html=1;aspect=fixed;" vertex="1" parent="1">
          <mxGeometry x="314" y="260" width="100" height="100" as="geometry" />
        </mxCell>
        <mxCell id="_l1W-Wn44Iar3BXcV8EO-18" value="" style="endArrow=classic;html=1;rounded=0;exitX=1;exitY=0.5;exitDx=0;exitDy=0;entryX=-0.036;entryY=0.44;entryDx=0;entryDy=0;entryPerimeter=0;" edge="1" parent="1">
          <mxGeometry width="50" height="50" relative="1" as="geometry">
            <mxPoint x="204" y="260" as="sourcePoint" />
            <mxPoint x="310.4000000000001" y="314" as="targetPoint" />
          </mxGeometry>
        </mxCell>
        <mxCell id="_l1W-Wn44Iar3BXcV8EO-19" value="Login" style="edgeLabel;html=1;align=center;verticalAlign=middle;resizable=0;points=[];" vertex="1" connectable="0" parent="_l1W-Wn44Iar3BXcV8EO-18">
          <mxGeometry x="-0.2591" y="-2" relative="1" as="geometry">
            <mxPoint as="offset" />
          </mxGeometry>
        </mxCell>
        <mxCell id="_l1W-Wn44Iar3BXcV8EO-20" value="" style="endArrow=classic;html=1;rounded=0;exitX=0.004;exitY=0.328;exitDx=0;exitDy=0;exitPerimeter=0;entryX=1;entryY=0.25;entryDx=0;entryDy=0;" edge="1" parent="1" source="_l1W-Wn44Iar3BXcV8EO-16" target="_l1W-Wn44Iar3BXcV8EO-14">
          <mxGeometry width="50" height="50" relative="1" as="geometry">
            <mxPoint x="384" y="330" as="sourcePoint" />
            <mxPoint x="214" y="230" as="targetPoint" />
          </mxGeometry>
        </mxCell>
        <mxCell id="_l1W-Wn44Iar3BXcV8EO-21" value="Response" style="edgeLabel;html=1;align=center;verticalAlign=middle;resizable=0;points=[];" vertex="1" connectable="0" parent="_l1W-Wn44Iar3BXcV8EO-20">
          <mxGeometry x="-0.1031" y="-3" relative="1" as="geometry">
            <mxPoint as="offset" />
          </mxGeometry>
        </mxCell>
        <mxCell id="_l1W-Wn44Iar3BXcV8EO-22" value="" style="endArrow=classic;html=1;rounded=0;" edge="1" parent="1" target="_l1W-Wn44Iar3BXcV8EO-16">
          <mxGeometry width="50" height="50" relative="1" as="geometry">
            <mxPoint x="204" y="400" as="sourcePoint" />
            <mxPoint x="254" y="350" as="targetPoint" />
          </mxGeometry>
        </mxCell>
        <mxCell id="_l1W-Wn44Iar3BXcV8EO-24" value="Login" style="edgeLabel;html=1;align=center;verticalAlign=middle;resizable=0;points=[];rotation=-30;" vertex="1" connectable="0" parent="_l1W-Wn44Iar3BXcV8EO-22">
          <mxGeometry x="0.1296" y="3" relative="1" as="geometry">
            <mxPoint x="-4" as="offset" />
          </mxGeometry>
        </mxCell>
        <mxCell id="_l1W-Wn44Iar3BXcV8EO-25" value="" style="endArrow=classic;html=1;rounded=0;entryX=1;entryY=1;entryDx=0;entryDy=0;exitX=0;exitY=1;exitDx=0;exitDy=0;" edge="1" parent="1" source="_l1W-Wn44Iar3BXcV8EO-16" target="_l1W-Wn44Iar3BXcV8EO-15">
          <mxGeometry width="50" height="50" relative="1" as="geometry">
            <mxPoint x="384" y="360" as="sourcePoint" />
            <mxPoint x="434" y="310" as="targetPoint" />
          </mxGeometry>
        </mxCell>
        <mxCell id="_l1W-Wn44Iar3BXcV8EO-26" value="Response" style="edgeLabel;html=1;align=center;verticalAlign=middle;resizable=0;points=[];rotation=-30;" vertex="1" connectable="0" parent="_l1W-Wn44Iar3BXcV8EO-25">
          <mxGeometry x="-0.3626" y="-3" relative="1" as="geometry">
            <mxPoint x="-13" y="13" as="offset" />
          </mxGeometry>
        </mxCell>
        <mxCell id="_l1W-Wn44Iar3BXcV8EO-27" value="Firebase" style="ellipse;whiteSpace=wrap;html=1;aspect=fixed;" vertex="1" parent="1">
          <mxGeometry x="600" y="105" width="80" height="80" as="geometry" />
        </mxCell>
        <mxCell id="_l1W-Wn44Iar3BXcV8EO-28" value="Supabase" style="ellipse;whiteSpace=wrap;html=1;aspect=fixed;" vertex="1" parent="1">
          <mxGeometry x="600" y="215" width="80" height="80" as="geometry" />
        </mxCell>
        <mxCell id="_l1W-Wn44Iar3BXcV8EO-29" value="Blockchain" style="ellipse;whiteSpace=wrap;html=1;aspect=fixed;" vertex="1" parent="1">
          <mxGeometry x="600" y="335" width="80" height="80" as="geometry" />
        </mxCell>
        <mxCell id="_l1W-Wn44Iar3BXcV8EO-30" value="Firebase&amp;nbsp;&lt;div&gt;Authentiaction&lt;/div&gt;" style="ellipse;whiteSpace=wrap;html=1;aspect=fixed;" vertex="1" parent="1">
          <mxGeometry x="600" y="435" width="80" height="80" as="geometry" />
        </mxCell>
        <mxCell id="_l1W-Wn44Iar3BXcV8EO-31" value="" style="endArrow=classic;html=1;rounded=0;exitX=1;exitY=0.5;exitDx=0;exitDy=0;entryX=0;entryY=0.5;entryDx=0;entryDy=0;" edge="1" parent="1" source="_l1W-Wn44Iar3BXcV8EO-16" target="_l1W-Wn44Iar3BXcV8EO-27">
          <mxGeometry width="50" height="50" relative="1" as="geometry">
            <mxPoint x="450" y="380" as="sourcePoint" />
            <mxPoint x="500" y="330" as="targetPoint" />
          </mxGeometry>
        </mxCell>
        <mxCell id="_l1W-Wn44Iar3BXcV8EO-32" value="" style="endArrow=classic;html=1;rounded=0;exitX=1;exitY=0.5;exitDx=0;exitDy=0;entryX=0;entryY=0.5;entryDx=0;entryDy=0;" edge="1" parent="1" source="_l1W-Wn44Iar3BXcV8EO-16" target="_l1W-Wn44Iar3BXcV8EO-28">
          <mxGeometry width="50" height="50" relative="1" as="geometry">
            <mxPoint x="450" y="380" as="sourcePoint" />
            <mxPoint x="500" y="330" as="targetPoint" />
          </mxGeometry>
        </mxCell>
        <mxCell id="_l1W-Wn44Iar3BXcV8EO-33" value="" style="endArrow=classic;html=1;rounded=0;entryX=0;entryY=0.5;entryDx=0;entryDy=0;" edge="1" parent="1" target="_l1W-Wn44Iar3BXcV8EO-29">
          <mxGeometry width="50" height="50" relative="1" as="geometry">
            <mxPoint x="420" y="310" as="sourcePoint" />
            <mxPoint x="500" y="330" as="targetPoint" />
          </mxGeometry>
        </mxCell>
        <mxCell id="_l1W-Wn44Iar3BXcV8EO-34" value="" style="endArrow=classic;html=1;rounded=0;exitX=1;exitY=0.5;exitDx=0;exitDy=0;entryX=0;entryY=0.5;entryDx=0;entryDy=0;" edge="1" parent="1" source="_l1W-Wn44Iar3BXcV8EO-16" target="_l1W-Wn44Iar3BXcV8EO-30">
          <mxGeometry width="50" height="50" relative="1" as="geometry">
            <mxPoint x="450" y="380" as="sourcePoint" />
            <mxPoint x="500" y="330" as="targetPoint" />
          </mxGeometry>
        </mxCell>
      </root>
    </mxGraphModel>
  </diagram>
</mxfile>
